<?xml version="1.0" encoding="UTF-8"?><svg xmlns="http://www.w3.org/2000/svg" xmlns:xlink="http://www.w3.org/1999/xlink" viewBox="0 0 2103 1167.01"><defs><linearGradient id="Degradado_sin_nombre_14" x1="827.56" y1="1016.26" x2="1154.29" y2="1016.26" gradientUnits="userSpaceOnUse"><stop offset="0" stop-color="#999"/><stop offset="1" stop-color="#666"/></linearGradient></defs><g id="Capa_7"><path d="M1189.1,566.16c-16.71-18.93-7.04-46.77-5.48-51.26,6.18-17.79,21.78-35.97,42.56-41.27,29.3-7.47,48.98,15.75,67.38,3.55,7.63-5.06,5.04-10.16,14.19-23.86,4.65-6.96,29.29-43.85,65.13-44.49,18.48-.33,36.9,8.81,48.36,21.28,17.19,18.7,12.73,38.38,26.12,42.88,12.95,4.36,20.32-12.98,41.27-13.54,19.91-.53,38.84,14.44,48.36,30.95,9.66,16.76,13.64,42.1,1.29,59.97-17.56,25.4-58.66,22.07-68.35,21.28-32.72-2.66-43.36-18.99-65.13-11.61-15.39,5.22-13.72,14.62-32.24,22.57-21.67,9.3-43.43,4.8-54.17,2.58-34.59-7.15-40.72-24.62-61.58-20.31-15.77,3.25-17.81,14.38-34.5,15.15-.85.04-20.41.64-33.21-13.86Z" fill="#e3ffe7"/><path d="M1666.1,1050.16c-16.71-18.93-7.04-46.77-5.48-51.26,6.18-17.79,21.78-35.97,42.56-41.27,29.3-7.47,48.98,15.75,67.38,3.55,7.63-5.06,5.04-10.16,14.19-23.86,4.65-6.96,29.29-43.85,65.13-44.49,18.48-.33,36.9,8.81,48.36,21.28,17.19,18.7,12.73,38.38,26.12,42.88,12.95,4.36,20.32-12.98,41.27-13.54,19.91-.53,38.84,14.44,48.36,30.95,9.66,16.76,13.64,42.1,1.29,59.97-17.56,25.4-58.66,22.07-68.35,21.28-32.72-2.66-43.36-18.99-65.13-11.61-15.39,5.22-13.72,14.62-32.24,22.57-21.67,9.3-43.43,4.8-54.17,2.58-34.59-7.15-40.72-24.62-61.58-20.31-15.77,3.25-17.81,14.38-34.5,15.15-.85.04-20.41.64-33.21-13.86Z" fill="#e3ffe7"/><path d="M130.16,655.97c-14.97-16.96-6.31-41.9-4.91-45.93,5.54-15.94,19.51-32.22,38.13-36.97,26.25-6.69,43.88,14.11,60.37,3.18,6.84-4.54,4.51-9.1,12.71-21.37,4.16-6.23,26.24-39.29,58.35-39.86,16.55-.3,33.06,7.89,43.33,19.06,15.4,16.75,11.41,34.38,23.4,38.42,11.6,3.9,18.2-11.63,36.97-12.13,17.84-.48,34.8,12.94,43.33,27.73,8.66,15.02,12.22,37.71,1.16,53.72-15.73,22.76-52.55,19.77-61.23,19.06-29.31-2.38-38.84-17.01-58.35-10.4-13.79,4.68-12.29,13.1-28.88,20.22-19.41,8.33-38.91,4.3-48.53,2.31-30.99-6.41-36.48-22.05-55.17-18.2-14.13,2.91-15.95,12.88-30.91,13.58-.76.04-18.28.57-29.75-12.42Z" fill="#e3ffe7"/><path d="M634.36,321.85c-21.76-24.65-9.17-60.89-7.14-66.74,8.04-23.16,28.36-46.83,55.41-53.73,38.14-9.73,63.77,20.51,87.73,4.62,9.94-6.59,6.56-13.23,18.47-31.06,6.05-9.05,38.13-57.09,84.79-57.92,24.06-.43,48.04,11.47,62.96,27.7,22.38,24.35,16.57,49.96,34,55.83,16.86,5.67,26.45-16.9,53.73-17.63,25.92-.69,50.57,18.8,62.96,40.3,12.58,21.82,17.76,54.81,1.68,78.07-22.86,33.07-76.37,28.73-88.99,27.7-42.59-3.46-56.45-24.73-84.79-15.11-20.03,6.8-17.86,19.03-41.97,29.38-28.21,12.11-56.55,6.25-70.52,3.36-45.03-9.31-53.02-32.05-80.17-26.44-20.53,4.24-23.18,18.72-44.91,19.73-1.11.05-26.57.83-43.23-18.05Z" fill="#e3ffe7"/><path d="M1638.36,204.85c-21.76-24.65-9.17-60.89-7.14-66.74,8.04-23.16,28.36-46.83,55.41-53.73,38.14-9.73,63.77,20.51,87.73,4.62,9.94-6.59,6.56-13.23,18.47-31.06,6.05-9.05,38.13-57.09,84.79-57.92,24.06-.43,48.04,11.47,62.96,27.7,22.38,24.35,16.57,49.96,34,55.83,16.86,5.67,26.45-16.9,53.73-17.63,25.92-.69,50.57,18.8,62.96,40.3,12.58,21.82,17.76,54.81,1.68,78.07-22.86,33.07-76.37,28.73-88.99,27.7-42.59-3.46-56.45-24.73-84.79-15.11-20.03,6.8-17.86,19.03-41.97,29.38-28.21,12.11-56.55,6.25-70.52,3.36-45.03-9.31-53.02-32.05-80.17-26.44-20.53,4.24-23.18,18.72-44.91,19.73-1.11.05-26.57.83-43.23-18.05Z" fill="#e3ffe7"/><path d="M871.68,1167.01h-185.36c-3.85-.62-7.69-1.29-11.51-2-53.57-9.8-105.26-26.13-152.5-48.81-.84-.39-1.67-.79-2.5-1.2-8.53-4.15-16.92-8.5-25.14-13.07-6.03-3.35-11.98-6.81-17.83-10.39-3.68-2.23-7.31-4.52-10.91-6.85-16.41-10.62-32.02-22.15-46.69-34.57-2.95-2.5-5.87-5.04-8.74-7.61-4.18-3.74-13.82-12.55-26.28-25.82-9-9.59-19.48-21.52-30.41-35.55-.21-.26-.41-.53-.62-.79-.46-.59-.92-1.19-1.38-1.79-.42-.54-.83-1.08-1.24-1.62-35.68-46.74-75.19-115.26-84.49-197.74h0c-2.42-21.35-2.8-43.62-.58-66.69.74-7.7,1.75-15.27,3.01-22.7,36.15-212.46,278.71-313.82,335.57-334.93,4.21-1.55,7.41-2.68,9.42-3.37,129.69-44.73,309.11-52.45,453.13,10.07,67.31,29.21,126.89,73.77,170.05,137.06,4.82,7.05,9.43,14.34,13.82,21.87,21.93,37.58,36.87,78.33,45.4,120.28.85,4.14,1.63,8.3,2.34,12.47,4.29,24.81,6.37,49.96,6.37,75.05,0,85.06-23.91,169.4-67.11,237.2-30.12,47.26-69.51,86.34-115.12,117.44l-.03.02c-23.98,16.36-49.68,30.51-76.66,42.51-6.52,2.9-13.11,5.67-19.78,8.31-17.01,6.76-34.48,12.7-52.28,17.82l-.1.03c-13.18,3.79-26.55,7.13-40.06,10.03-5.55,1.19-11.12,2.31-16.71,3.34l-45.08,2Z" fill="#c9fcc5"/><path d="M1415.79,552.79l-215.59,184.27c-64.72,55.32-110.79,129.27-131.91,211.75l-45.68,178.41,145-64.34c26.58-12.94,68.09-37.26,107.21-80.37,42.89-47.26,63.39-95.59,73.18-124.5,22.6-101.74,45.19-203.48,67.79-305.22Z" fill="#92e58c"/><path d="M1382,610.01c-94.63,145.77-201.35,308.91-297,454,94.62-145.77,201.35-308.91,297-454h0Z" fill="#d2f9cf"/><path d="M138.62,578.79l215.59,184.27c64.72,55.32,110.79,129.27,131.91,211.75l45.68,178.41-145-64.34c-26.58-12.94-68.09-37.26-107.21-80.37-42.89-47.26-63.39-95.59-73.18-124.5-22.6-101.74-45.19-203.48-67.79-305.22Z" fill="#92e58c"/><path d="M172.41,636.01c95.65,145.1,202.38,308.23,297,454-95.66-145.09-202.37-308.23-297-454h0Z" fill="#d2f9cf"/><path d="M871.68,1167.01h-402.78c.09-.66.18-1.33.27-2h447.59l-45.08,2Z" fill="#e3ffe7"/></g><g id="Capa_4"><path d="M744.05,706.81c-5.32-.89-11.95-1.56-19.55-1.3-8.32.28-7.94,4.08-13.5,5.5,3.17,4.84.85,11.66,2.5,24.5,1.98,15.43-2.22,27.54-4.51,33.02-8.21,2.3-40.83,10.43-75.99-6.52-30.63-14.76-44.73-39.65-49-48l57-78,45.36-18,57.68,88.8Z" fill="#d8a387"/><path d="M742,711.01c-12.68-8.17-33.42-19.17-61-24-15.45-2.7-29.13-2.79-40-2,11.67-18.33,23.33-36.67,35-55l66,81Z" fill="#bc836f"/><path d="M819.5,519.51c8.53,13.77,9.21,28,9.9,42.73.47,10.02-.27,18.84-1.37,25.99-.88,5.77-3.06,11.26-6.39,16.05-2.63,3.78-5.5,7.48-8.14,11.25-3.27,4.68-4.12,10.64-2.32,16.07,2.63,7.94.45,16.7-5.6,22.48l-35.05,33.49c-1.34,1.28-2.41,2.83-3.13,4.54l-4.5,10.65c-.16.39-.35.77-.57,1.13-5.92,9.82-19.24,12.12-28.15,4.75-9.88-8.17-20.53-18.11-30.68-26.13-11.49-9.08-18.87-15.33-24.89-21.33-9.37-9.34-12.08-23.42-6.9-35.59,16.97-39.83,29.13-85.53,47.56-123.57.83-1.7,2.17-3.09,3.82-4.01,7.49-4.14,21.92-10.52,40.41-9.5,2.37.13,38.45,2.68,56,31Z" fill="#e1af90"/><path d="M736,560.01c5.02-1.92,11.43-3.86,19-5,3.54-.54,6.87-.83,9.94-.95,4.01-.16,7.99.64,11.61,2.37s7.45,3.86,11.44,6.59c3.21,2.19,6.01,4.43,8.43,6.58.89.79,1,2.13.26,3.05l-1.03,1.28c-.9,1.13-2.54,1.31-3.66.4-3.68-3-8.66-6.43-15.01-9.31-5.1-2.31-9.85-3.71-13.82-4.57-1.39-.3-2.8-.43-4.22-.43h-22.96Z" fill="#562f21"/><path d="M807.98,584.61c-.94-.31-1.28-1.48-.65-2.25l.6-.75c.67-1.01,1.88-1.52,3.08-1.31,2.57.44,5.67,1.24,8.99,2.71,2.85,1.25,5.18,2.69,7,4-.26,1.25-.58,2.59-1,4-.32,1.06-.65,2.06-1,3-2.26-1.88-5.25-4.03-9-6-2.9-1.52-5.62-2.61-8.02-3.39Z" fill="#562f21"/><path d="M735,573.01l14.87,2.62c1.31.23,2.55.8,3.56,1.67,2.51,2.16,6.01,4.68,10.57,6.71,3.09,1.38,5.99,2.23,8.46,2.76,1.2.26,2.19,1.1,2.68,2.22h0c.46,1.06-.25,2.24-1.4,2.36-2.64.28-6.51.25-10.74-1.35-6.52-2.46-10.21-7.24-11.95-10.09-.77-1.27-1.97-2.22-3.38-2.69-4.22-1.41-8.45-2.82-12.67-4.22Z" fill="#562f21"/><path d="M729.5,640.51c10.31,2.42,18.57,3.73,24.5,4.5,0,0,16.71,2.17,21,7,.52.59,1.32,1.76,3,3,2.17,1.6,3.65,1.71,4,3,.31,1.14-.51,2.31-1,3-.95,1.35-2.21,1.96-2.81,2.2-1.73,1.6-3.46,3.2-5.19,4.8.6,1.4,1.19,3.4.28,4.74-1.92,2.81-9.12.62-10.28.26-7-2.16-10.91-6.74-19-16-2.56-2.93-7.56-8.65-14.5-16.5Z" fill="#d6837c"/><path d="M773,668.01c-1.25-.08-3.42-.29-6-1-9.6-2.65-13.63-9.14-25-18-2.14-1.67-5.53-4.19-10-7,6.69,2.95,15.14,6.82,19,8,1.3.4,1.39.4,2.94.88,3.29,1.02,8.59,2.79,14.71,5.41,5.21,2.22,9.53,4.42,9.35,6.71-.09,1.11-1.26,2.27-2,3-1.1,1.09-2.25,1.68-3,2Z" fill="#fff"/><path d="M813.18,613.45c.43-1.3-.28-2.69-1.59-3.1-1.13-.35-2.34-.79-3.59-1.35-3.47-1.54-6.13-3.43-8-5,.69,1.88,2.12,4.99,5,8,1.4,1.46,2.84,2.58,4.14,3.42,1.41.92,3.31.24,3.84-1.36.07-.2.14-.41.2-.61Z" fill="#562f21"/><path d="M802,590.01c-3.77,11.48-3.11,24.39,2.19,35.27.63,1.42,1.57,2.72,1.83,4.29.69,4.75-2.63,9.6-6.99,11.32-1.25.58-3.16.79-4.51,1.03-4.36.71-9.17,1.48-13.52,2.1,2.97-.65,5.96-1.23,8.93-1.85,2.56-.6,6.44-.99,8.8-1.99,3.93-1.7,7.01-6.11,6.35-10.43-.26-1.46-1.2-2.69-1.79-4.04-5.29-11.06-5.88-24.33-1.29-35.7h0Z" fill="#d3906a"/></g><g id="Capa_3"><path d="M469.1,932.78c-.03.12-.06.23-.09.34h0c.01.4.03.79.05,1.19.04-.25.09-.5.14-.75-.03-.26-.07-.52-.1-.78ZM469.1,932.78c-.03.12-.06.23-.09.34h0c.01.4.03.79.05,1.19.04-.25.09-.5.14-.75-.03-.26-.07-.52-.1-.78ZM469.1,932.78c-.03.12-.06.23-.09.34h0c.01.4.03.79.05,1.19.04-.25.09-.5.14-.75-.03-.26-.07-.52-.1-.78ZM469.1,932.78c-.03.12-.06.23-.09.34h0c.01.4.03.79.05,1.19.04-.25.09-.5.14-.75-.03-.26-.07-.52-.1-.78ZM887.02,1011.05l-7.2-72.44-11.68-117.66c-1.92-19.38-9.93-36.94-22.11-50.74-14.24-16.14-34.19-27.13-56.8-29.86l-44.23-5.34c-5.87,5.95-15.57,14.27-29.5,20.5-.96.43-1.91.83-2.85,1.23-1.04.42-2.08.82-3.11,1.19-3.9,1.45-7.71,2.56-11.36,3.41-13.54,3.17-25.01,2.78-31.68,2.17-8.47-1.61-29.47-6.8-48-25-11.98-11.77-18.33-24.45-21.66-33.2-.76-1.99-1.36-3.77-1.84-5.3-.28.03-.55.05-.83.08-14.19,1.39-28.37,2.78-42.56,4.17-8.06.79-16.12,1.58-24.18,2.37-11.25,1.1-22.51,2.21-33.76,3.31-32.72,3.21-61.01,24.15-73.71,54.48-6.22,14.84-12.34,30.33-18.29,46.44-5.03,13.6-9.94,27.65-14.67,42.15-4.23,12.94-8.15,25.7-11.78,38.25-.26.92-.53,1.84-.79,2.75,0,.01,0,.02-.01.02-3.49,12.19-6.71,24.19-9.69,35.97-1.58,6.31-3.11,12.54-4.55,18.72-.02.07-.04.13-.05.19-.66,2.77-1.3,5.53-1.92,8.28-1.34,5.88-2.61,11.71-3.83,17.48h0c-.4,1.91-.8,3.79-1.19,5.68-2.72,13.18-5.14,26.06-7.29,38.6-.48,2.82-.78,5.65-.9,8.46v.04s-.01.03,0,.04c-.01.06-.01.12,0,.17-.54,13.83,3.26,27.38,10.7,38.8,2.38,3.66,5.14,7.09,8.25,10.24,1.21,1.24,2.47,2.42,3.79,3.56.01.01.03.03.04.03.83.72,1.66,1.41,2.53,2.09,5.91,4.62,12.73,9.09,20.54,13,.03.02.07.03.1.05,4.08,2.04,8.42,3.92,13.05,5.58,6.93,2.49,14.34,4.14,21.77,5.17h.01c4.78.67,9.58,1.08,14.24,1.3h.02c14.29.67,27.4-.46,35.65-1.61,2.11-.3,3.9-.59,5.31-.86,0,0-.5,3.1-1.3,7.91-.71,4.29-1.66,9.95-2.71,15.99-2.47,14.21-5.47,30.51-7.16,36.1-.39,1.28-.7,2-.93,2h420.1v-136l-1.98-19.96ZM450,1009.01s.01-.02.01-.03c.09-.24.18-.49.26-.75,0-.01,0-.02.01-.03,3.19-9.07,7.5-27.5,11.72-43.19,3.19-11.91,5.38-22.01,7.06-30.7.04-.25.09-.5.14-.75-.03-.26-.07-.52-.1-.78,0-.04,0-.09-.02-.13-.02-.21-.05-.43-.08-.64.45-2.12.88-4.15,1.29-6.1h0c.74-3.49,1.4-6.68,2-9.6-.08.51-.18,1.08-.29,1.7-.45,2.57-.92,5.3-1.45,8.21,0,.02-.01.05-.01.07,0,.05-.02.11-.03.17-.18,1.02-.37,2.07-.57,3.14,0,.02-.01.04-.01.07-.23,1.27-.47,2.55-.73,3.89,3.42,26.18,6.83,52.35,10.25,78.53.23,1.77.46,3.53.69,5.3.12.92.24,1.83.36,2.75.16,1.29.33,2.58.5,3.87l-.97-.47-29.9-14.47-.13-.06ZM474.62,904.66c-.61,3.12-1.36,6.88-2.26,11.28,1.02-6.03.5-4.1.13-2.6.4-1.84,1.4-6.42,3.51-16.33-.79,4.05-1.21,6.19-1.37,7.09.38-1.75,1.44-7.07,1.46-7.07,0,.1-.9,4.72-1.47,7.63ZM469.1,932.78c-.03.12-.06.23-.09.34h0c.01.4.03.79.05,1.19.04-.25.09-.5.14-.75-.03-.26-.07-.52-.1-.78ZM469.1,932.78c-.03.12-.06.23-.09.34h0c.01.4.03.79.05,1.19.04-.25.09-.5.14-.75-.03-.26-.07-.52-.1-.78ZM469.1,932.78c-.03.12-.06.23-.09.34h0c.01.4.03.79.05,1.19.04-.25.09-.5.14-.75-.03-.26-.07-.52-.1-.78Z" fill="#00933b"/><path d="M502,1021.01c-.21,2.27-.41,4.53-.62,6.8-.14,1.64-.29,3.28-.44,4.92-2.09,23.07-4.18,46.13-6.27,69.2-.37,4.03-.73,8.06-1.09,12.09-.65,7.13-1.3,14.26-1.94,21.39-.89,9.87-1.79,19.73-2.68,29.6-.06.67-.12,1.33-.18,2h-19.88c.09-.66.18-1.33.27-2,1.65-12.25,3.15-24.78,4.48-37.58.12-1.14.23-2.28.35-3.42.39-3.87.76-7.71,1.1-11.54.21-2.21.41-4.41.59-6.6.42-4.81.8-9.58,1.15-14.33,1.75-23.44,2.77-46.13,3.19-68,.03-1.19.05-2.38.07-3.56.01-.87.03-1.73.04-2.59.01-.72.02-1.43.03-2.14-.24-1.04-.49-2.1-.72-3.16-2.45-10.82-4.67-22.53-6.45-35.08-2.17-15.28-3.38-29.6-3.94-42.7-.02-.4-.04-.79-.05-1.18-.01-.04-.01-.08-.01-.12.03-.12.05-.24.08-.36.48-2.07.95-4.14,1.42-6.21.02-.05.03-.1.04-.15,0-.02.01-.05.01-.07,3.14-13.71,6.27-27.42,9.41-41.12,0-.06.03-.11.04-.17l.06.22,1.06,3.88,10.88,39.98c3.19,11.91,6.09,25.65,8,41,2.38,19.16,2.66,36.39,2,51Z" fill="#068439"/><path d="M348,1009.01c-.07.27-.14.55-.21.82-9.72,38.51,13.06,77.89,51.37,88.39,13.62,3.73,28.25,7.08,43.83,9.8,53.17,9.25,99.03,7.86,132.47,4.23l-14.39-65.47c-67.02-19.85-88.08-29.76-88.08-29.76-15.03-4.22-38.05-12.62-62-30-24.13-17.51-39.33-36.96-48-50l-15,72Z" fill="#028e3a"/><path d="M817,888.21c-.13.02,4.55,13.72,5,31.8,0,0,.91,37.3-18.5,69.5-.4.67-1.33,2.18-2.56,4.38-2.8,5.01-7.09,13.55-10.44,24.62-3.34,11.05-4.53,20.59-5,27,17.33,39.67,34.67,79.33,52,119-34.98-107.93-37.36-145.8-30.5-157.5.23-.39.73-1.19,1.38-2.37,2.12-3.78,5.08-9.92,7.41-19.54,9.81-40.51,6.2-71.1,6.2-71.1-1.71-14.54-4.88-25.82-5-25.8Z" fill="#068439"/><path d="M450,1010.01c-9.43-2.32-22.15-1.23-37,0-34.95,2.91-57.37,22.65-67,31-.26-3.9-1.14-8.99-1-16,.52-26.37,6.26-44.91,12-65,4.44-15.55,10.8-38.67,18.11-68.8,30.96,14.93,75.93-20.14,106.89-5.2-4.91,16.47-23.39,84.51-27,104-1.59,8.57-3.91,11.91-5,20Z" fill="#00933b"/></g><g id="Capa_2"><path d="M788.32,1165.01l6.58,2h-60.64l-5.8-2-152.99-52.77h0l-3.02-1.04c-1.98-.69-3.16-2.71-2.79-4.77l1.35-7.42.2.06,1.47.45,161.02,48.9,54.63,16.59Z" fill="#7f7f7f"/><path d="M916.76,1165.01h7.16l9.55-3.34,110.53-38.66-6.92-2.2-11.85-3.76-136.23-43.2-23.13-7.34-42.21-13.39c-4.37-1.38-9.02-1.67-13.52-.82l-3.02.57h0l-17,3.18-6.82,1.28h-.01l-2.9.54-.77.15h-.01l-1.04.19-5.34,1s-.01.01-.02,0l-2.89.55-3.34.62s-.01,0-.01,0l-9.02,1.69s-.01.01-.01,0l-80.83,15.14h-.02l-16.08,3.01-.24.05h-.01l-5.63,1.05h0l-6.19,1.16h-.01l-13.28,2.49h-.05s-63.01,11.81-63.01,11.81c-.1.02-.2.05-.3.08-.06.01-.11.04-.16.07-.01,0-.02,0-.02.01-.08.04-.16.08-.23.14-.06.03-.12.08-.17.13-.52.47-.69,1.22-.49,1.86.15.5.51.93,1.11,1.14l.56.2,185.06,64.6,5.73,2h108.02l45.08-2Z" fill="#999"/><path d="M973.82,1133.51l-84.82,27.82-11.22,3.68-6.1,2h-83.62l-5.85-2-48.52-16.59-52.23-17.86c-2.14-.73-1.98-3.8.22-4.3l126.49-28.87,8.68-1.99,41.15-9.39.38.16,30.62,12.55,84.82,34.79Z" fill="#353535"/><path d="M931,1167.01l42.53-15.37.1-.03,52.28-17.82,12.12-4.13c2.8-.96,5.39-2.38,7.66-4.18,3.39-2.67,6.08-6.19,7.78-10.26l.86-2.06,99.42-238.05c1.91-4.57-1.45-9.6-6.39-9.6h-193.23c-7,0-13.28,4.32-15.77,10.87l-51.34,134.67-21.15,55.46-7.49,19.66-24.98,65.52-.7,1.84-4.38,11.48-.76,2h103.44Z" fill="url(#Degradado_sin_nombre_14)"/></g><g id="Capa_5"><path d="M963.5,856.51c-.11.68-18.94,2.83-36-8-12.43-7.89-14.08-16.42-19.5-15.5-9.08,1.54-17.19,27.63-8,43,4.18,6.98,8.71,6.37,11.5,13.5,4.87,12.41-4.09,26.44-7,31-4.38,6.86-9.7,15.2-19.5,17.5-15.3,3.59-33.63-9.42-35.5-22.5-1.83-12.86,13.34-18.05,11.5-31.5-1.36-9.97-10.35-11.25-24-27-8.29-9.56-18.38-21.21-21-36-4.58-25.86,10.1-50.57,9-51-1.03-.4-7.58,24.26-16.5,24.5-12.44.33-24.07-46.96-25.5-46.5-.77.25,6.06,12.85,2.5,24.5-5.17,16.95-32.36,32.05-56.5,24.5-24.85-7.77-33.32-35.42-33-53,.4-21.78,16.03-35.84,19-38,3.47-2.53,7-3,7-3h.08c2.88-.39,5.8.48,8.02,2.36,1.19,1.01,2.38,2.01,3.56,2.98,8.87,7.34,22.13,5.08,28.09-4.65.26-.43.48-.89.68-1.35l2.08-4.92c2.29-5.43,5.67-10.33,9.93-14.4l30.62-29.26c4.53-4.33,7.04-10.31,7.01-16.52,0-1.14-.2-2.28-.56-3.37l-1.03-3.13c-1.69-5.09,1.48-13.35,4.53-17.76,2.73-3.93,3.36-5.09,6.09-9.01,3.35-4.8,5.53-10.3,6.41-16.09,1.1-7.14,1.84-15.95,1.37-25.97-.7-14.72-1.37-28.96-9.9-42.73-2.61-4.2-5.62-7.84-8.87-10.98-.26-.25-.5-.52-.73-.8-.12-.14-.24-.29-.37-.42-1.19-1.3-2.59-2.39-4.15-3.3-10.5-6.16-28.02-3.83-33.85,2.3-.69.72-1.31,1.53-1.76,2.15-.51.7-.95,1.45-1.25,2.27-1.37,3.67-.73,7.71-2.99,13.58-10.91,28.35-64.84,24.6-69,47-.87,4.66.9,6.24,1.34,9.71.25,1.98.01,3.46-.34,5.29-1.58,8.03-10.99,21.53-18,28-1.02.94-2.33,2.04-3,4-.98,2.85.44,4.44-1,7-.62,1.11-1.17,1.31-2,3-.5,1.01-.8,1.95-1.07,3.03-.76,3.09-.42,4.72-.93,6.97-.51,2.24-1.13,4.24-1.83,6.07-5.34,13.88-15.74,17.53-25.17,35.93-10.15,19.82-4.7,28.57-13,33-14.33,7.64-35.07-15.38-47-7-7.01,4.92-3.14,15.17-10,20-9.38,6.61-28.05-3.22-38-11-9.32-7.28-9.01-11.39-16.5-14.5-14.73-6.11-30.41,3.79-30.5,3.5-.1-.33,20.62-12.51,35.5-4.5,3.99,2.15,7.09,5.5,8.5,4.5,2.06-1.46-4.24-8.96-4-19,.33-13.95,12.14-24.4,14-26,10.17-8.75,17.05-5.89,22-14,4.48-7.34-.55-10.66,4-20,4.5-9.23,11.04-9.35,15-19,2.57-6.27,2.07-11.75,2-14-.53-16.02,13.7-76.81,60-119,16.55-15.08,39.79-36.85,75-40,51.67-4.63,90.1,34.03,103,47,9.98,10.04,41.88,42.12,48,89,4.12,31.53-5.46,54.12,12,77,8.89,11.65,18.15,14.66,20,27,2.38,15.85-11.11,22.72-9,42,.92,8.43,4.24,13.96,11,25,15.67,25.6,27.91,24.97,29.5,37.5,2.38,18.79-24.12,28.62-20,48,1.66,7.82,7.4,12.92,12,17,15.94,14.15,36.11,13.29,36,14Z" fill="#5b3c27"/><path d="M813,500.01c18.91-15.22,38.34,4.97,44.61,22.94,0,0,1.32,4,1.32,4l1.07,4.06c-1.65-5.35-3.76-10.55-6.53-15.38-8.19-14.73-24.28-27.36-40.47-15.62h0Z" fill="#472c19"/><path d="M717.5,472.51c9.12-2.8,18.44-4.95,27.85-6.55,9.41-1.63,18.93-2.31,28.39-3.54,4.77-.48,9.52-1.27,14.35-.89,9.93,1.14,16.6,10.4,19.97,19.09,1.7,4.48,2.81,9.16,3.44,13.88-.85-4.69-2.06-9.32-3.89-13.7-3.45-8.35-10.02-17.26-19.61-18.37-4.69-.34-9.46.47-14.14.97-18.98,1.93-37.91,4.02-56.36,9.09h0Z" fill="#472c19"/><path d="M668,483.01c.33-.25.85-.15,1.25-.2.72-.02,3.1,0,3.88.01,5.07.08,10.48.14,15.5.02,13.76-.29,27.57-1.5,40.98-4.68,6.76-1.45,13.14-4.1,19.71-6.17,6.63-1.96,13.44-3.25,20.32-3.91,6.88-.51,13.96-1.09,20.69.88,9.93,3.23,18.44,11.52,20.78,21.84.9,4.3.75,8.87-.71,13.03-.27.56-.45,1.28-1.14,1.62-.74.28-1.07-.65-1.09-1.13-.18-1.8-.16-3.47-.34-5.18-.32-3.38-1.04-6.76-2.68-9.71-6.37-11.65-23.09-16.26-35.6-16.12-13.83.47-26.56,7.05-40.07,9.49-13.51,2.78-27.36,3.86-41.13,3.21-5.16-.26-10.32-.74-15.41-1.65-1.65-.39-3.5-.5-4.95-1.36h0ZM668,483.01c1.45.85,3.31.96,4.95,1.34,5.09.89,10.25,1.35,15.41,1.6,13.76.61,27.61-.52,41.06-3.45,13.56-2.59,26.15-9.27,40.11-9.87,12.92-.26,29.78,4.35,36.44,16.37,2.77,4.74,2.74,10.41,3.27,15.62,0,.03-.03-.05-.09-.07-.1-.05-.18-.04-.23-.01,2.07-3.94,2.1-9.14,1.26-13.52-2.23-9.99-10.5-18.07-20.1-21.22-6.54-1.95-13.62-1.46-20.37-1.01-6.84.59-13.64,1.82-20.25,3.71-6.59,2.01-13,4.61-19.78,5.99-13.46,3.04-27.28,4.19-41.05,4.44-5.01.1-10.47.02-15.5-.08,0,0-2.58-.03-2.58-.03h-1.29c-.42.06-.9-.05-1.25.2h0Z" fill="#472c19"/><path d="M692.5,470.51c11.79-1.74,23.4-4.72,34.53-8.97,5.65-2.01,10.78-5.12,16.52-6.93,20.61-6.61,43.37-5.19,57.83,12.66,5.7,6.94,9.39,15.47,11.12,24.24-2.03-8.68-5.85-17.01-11.6-23.84-14.59-17.36-36.67-18.55-57.08-12.2-5.67,1.75-10.87,4.89-16.52,6.78-11.23,4.11-22.94,6.93-34.8,8.26h0Z" fill="#472c19"/><path d="M548.5,708.51c11.42-16.03,29.92-37.5,51.9-29.54,4.05,1.51,7.7,3.88,11.14,6.41,3.43,2.43,6.7,5.39,10.67,6.84,4.25,1.57,8.35-.93,9.61-5.18,2.42-8.17,2.14-16.89,3.23-25.3.89-8.51,2.19-16.99,4.05-25.35,5.84-24.99,15.71-49.17,29.72-70.7,9.27-14.4,20.19-27.62,30.9-40.95,13.6-16.09,27.81-33.87,48.33-41.11,21.04-7.39,43.2,3.44,58.45,17.87-15.33-14.23-37.39-24.76-58.28-17.36-20.37,7.26-34.44,25.01-47.92,41.07-10.65,13.33-21.51,26.57-30.71,40.97-13.82,21.51-23.79,45.52-29.68,70.38-3.49,14.57-4.39,29.54-6.04,44.39-.76,6.65-3.53,14.42-11.85,11.85-4.1-1.5-7.33-4.47-10.82-6.96-3.42-2.53-7.01-4.87-10.99-6.37-21.73-7.91-40.22,13.23-51.71,29.04h0Z" fill="#472c19"/><path d="M545.5,684.51c14.27-9.69,46.22-31.76,62.4-17.49,2.4,2,3.9,4.94,6.25,6.89,2.19,1.31,2.97-1.58,3.11-3.29.44-5.17-.22-10.36-.51-15.53-.61-8.31-1.07-16.65-.9-24.99.76-51.37,23.68-72.72,59.22-105.08,18.37-16.64,36.82-35.05,61.09-42.53,20.99-6.21,56.47-11.53,68.35,12.02-12.06-23.38-47.31-17.64-68.17-11.47-24.16,7.54-42.44,25.95-60.71,42.59-12.17,11.31-24.61,22.49-35.16,35.35-22.96,26.75-25.9,60.27-23.06,94.06.27,4.16.62,8.31.62,12.5-.08,2.12.03,4.32-1.08,6.26-1.71,2.46-4.16-.01-5.34-1.71-1.28-1.65-2.55-3.28-4.08-4.65-15.77-13.97-47.78,7.59-62.02,17.07h0Z" fill="#472c19"/><path d="M592.5,629.51c5.55-47.13,31.23-91.27,69.16-119.74,5.41-4.06,11.04-7.81,16.84-11.26-11.42,7.19-22.1,15.54-31.75,24.96-29.16,28.09-48.36,66.02-54.25,106.04h0Z" fill="#472c19"/><path d="M612.5,529.51c26.64-46.88,76.32-79.62,130.03-85.06,7.63-.8,15.31-1.12,22.97-.94-7.66-.02-15.32.46-22.92,1.42-53.44,6.17-102.47,38.55-130.08,84.58h0Z" fill="#472c19"/><path d="M812.5,491.51c37.52-29.38,57.17,16.56,67.82,46.56,3.84,10.53,7.38,21.21,9.93,32.14,2.58,10.93,4.11,22.08,5.34,33.21,1.05,8.25,1.71,16.82,5.77,24.22,4.03,7.49,11.4,12.08,18.49,16.41,15.64,9.08,26.95,19.74,29.66,38.47-2.93-18.56-14.43-29.03-29.97-37.98-10.21-5.95-18.92-12.3-21.97-24.41-1.5-5.45-2.12-11.05-2.82-16.61-1.28-11.12-2.87-22.2-5.48-33.08-2.49-10.91-5.96-21.55-9.74-32.08-10.42-29.8-29.55-75.45-67.03-46.84h0Z" fill="#472c19"/><path d="M815.5,477.51c30.92,11.28,55.88,34.84,56.44,69.49.43,10.61-.56,21.19-.03,31.72.36,10.52,2.51,20.99,6.78,30.63,2.12,4.82,4.68,9.44,7.58,13.84,15.4,21.53,28.64,44.63,38.23,69.32-8.2-19.47-17.97-38.35-29.84-55.85-5.96-8.73-12.5-17.21-16.73-26.98-9.62-20.41-6.55-41.09-6.82-62.65-.21-5.26-.73-10.53-2-15.63-6.17-26.36-29.33-44.55-53.61-53.89h0Z" fill="#472c19"/><path d="M817.5,505.51c22.88,15.15,37.32,38.21,35.81,66.17-.45,18.81-7.54,36.8-8.28,55.53-.36,9.29,2.39,18.73,8.97,25.47,3.9,4.02,8.89,6.64,14.11,8.62,5.15,2.03,10.95,4.39,13.95,9.42,5.72,8.95,3.17,18.35-1.45,27.08-3.38,6.64-7.36,13.12-8.86,20.48-1.51,7.24-.16,15.11,4.01,21.26,4.18,6.25,10.65,10.41,16.43,15.06,20.39,15,22.88,38.38,14.3,60.91,6.56-17.23,6.62-38.66-6.43-52.89-4.97-5.64-11.33-9.73-17.11-14.49-9.29-7.14-14.44-18.3-11.95-30,2.14-11.18,10.21-20.11,12.88-31.06,1.43-5.82.18-12.16-3.38-16.98-3.17-4.1-8.03-5.98-12.78-7.87-5.25-2-10.46-4.77-14.41-8.89-12.84-13.22-9.4-32.17-5.89-48.44,2.31-10.99,4.83-21.98,5.25-33.23,1.63-27.59-12.71-50.99-35.19-66.15h0Z" fill="#472c19"/><path d="M829.5,628.51c-8.15,21.72-12.85,47.96,0,68.78,4.08,6.96,10.69,11.49,16.09,17.4,7.07,8.09,9.93,19.48,8.4,30.04-1.58,10.57-6.23,20.28-9.02,30.5-9.92,32.27,4.88,62.84,25.53,87.28-21.3-24.29-36.12-54.9-26.33-87.5,2.72-10.2,7.31-19.94,8.83-30.41,1.55-10.31-1.17-21.41-8.03-29.35-5.26-5.81-12.04-10.61-16.06-17.58-12.9-21.06-8.02-47.44.59-69.15h0Z" fill="#472c19"/><path d="M804.5,668.51c-8.07,21.38-21.58,43.1-43.84,51.65-8.69,3.48-18.1,4.39-27.25,5.75-6.74,1.02-13.77,2.86-18.26,8.28-7.49,8.98-6.91,22.23-2.53,32.51,3.64,8.45,10.69,15.28,19.16,18.83,12.9,5.57,28.4,2.41,38.71-7.02-6.79,6.29-15.91,10.25-25.28,10.27-14.1.16-27.82-8.76-33.39-21.74-4.56-10.58-5.13-24.22,2.58-33.49,8.03-9.4,21.57-8.33,32.61-10.6,29.55-4.39,47.14-28.27,57.48-54.44h0Z" fill="#472c19"/><path d="M817.5,486.51c-4.97-15.75-13.74-31.03-27.63-40.44-40.81-26.47-103.96-5.54-139.76,21.65-18.93,14.25-35.38,33.4-41.43,56.71-2.37,9.05-3.54,18.37-5.12,27.61-2.62,16.48-7.52,32.62-14.87,47.62-7.28,15.02-16.5,29.06-27.18,41.85,10.55-12.89,19.62-27.01,26.74-42.06,7.27-15,12.1-31.06,14.66-47.52,1.54-9.22,2.69-18.59,5.04-27.69,6.02-23.52,22.53-42.9,41.56-57.32,36.04-27.21,99.76-48.06,140.64-21.25,13.88,9.6,22.52,24.99,27.36,40.84h0Z" fill="#472c19"/><path d="M873,641.01c7.82,18.63,20.05,47.69,39.76,55.77,4.37,1.52,9.15,2.4,13.36,4.51,4.28,2.01,8.31,4.7,11.45,8.26,3.13,3.51,5.37,7.87,6.43,12.46-1.26-4.5-3.56-8.74-6.79-12.12-3.17-3.43-7.16-6-11.41-7.89-4.3-2.01-8.87-2.83-13.37-4.36-20.2-8.1-32.34-37.36-39.44-56.62h0Z" fill="#5b3c27"/></g><g id="Capa_6"><path d="M738.61,1052.01c1.28,3.94-9.88,12.81-21,16-8.27,2.37-11.17.08-23,3-3.81.94-8.2,2.63-17,6-9.89,3.79-15.17,6.3-23,6-3.63-.14-7.4-.29-8-2-1.47-4.19,16.76-15.45,33-22,26.01-10.48,57.08-12.94,59-7Z" fill="#c99e87"/><path d="M561,1047.01l35.39,9.5c6.59,1.61,13.54.77,19.55-2.36l46.55-25.95c1.4-.78,2.94-1.3,4.52-1.53l3.99-.66,3.16-3.19c.9-1.13,2.32-1.71,3.76-1.54l13.69,1.72-28.48,54.28c-2.17,4.13-6.45,6.72-11.11,6.72l-17.02,1-62.12,11.65c-1.13.21-2,1.1-2.19,2.23l-1.69,10.12c-3.4-5.02-7.7-12.05-10.39-21-5.34-17.77.52-33.15,2.39-41Z" fill="#e1af90"/><path d="M674.61,1023.01c.84-1.55,3.79-1.7,5.5-1.5,23.23,2.68,107.8,21.14,105,33-.41,1.71-2.86,4.21-5.5,5.5-2.91,1.42-5.8,1.26-8,1-6.23-.74-9.35-1.11-16-5-15.96-9.32-34.86,1.55-58.5-10.5-13.05-6.66-24.53-18.77-22.5-22.5Z" fill="#e1af90"/><path d="M671,1026.01c3.78-.92,6.84-1.06,9-1,2.39.07,3.65.36,6,0,3.75-.58,5.88-2.21,6-2,.17.29-4.03,4.19-10,6-6.04,1.83-11.35.75-14,0l3-3Z" fill="#dbaa8f"/><path d="M773.61,1047.01c-1.09.92-1.31,2.69-1,4,1.11,4.71,10.01,7.18,12,5,1.04-1.13.18-3.5,0-4-.82-2.26-2.71-3.29-4-4-1-.55-4.97-2.71-7-1Z" fill="#d8bfaf"/><path d="M754.61,1040.01c4.06,1.66,8.77,3.66,14,6,1.29.58,4.56,2.07,8,5,4.09,3.48,4.08,5.31,4,6-.21,1.75-1.76,2.84-2,3-3.15,2.15-8.01-.08-10-1-9.06-4.17-12.84-15.13-14-19Z" fill="#cea88e"/><path d="M685.11,1052.51c2.5.97,2.78.48,25,1,17.89.42,26.83.62,33.5,3.5,8.54,3.68,13.02,4.82,22,7,.95.23,3.28.77,6,0,2.99-.84,6.52-3.28,7-6,.96-5.41-10.3-11.43-17-15-5.36-2.86-13.41-6.26-30-10-2.91-.66-8.53-1.63-19.78-3.56,0,0-19.96-3.43-29.83-3.44-.89,0-2.36.04-5,0-3.82-.05-4.51-.18-6,0-1.87.22-5.01.6-6,2-2.56,3.64,6.07,19.04,20.11,24.5Z" fill="#e1af90"/><path d="M679.61,1045.01c9.11-4.12,16.8-5.5,22-6,11.65-1.13,21.95,1.02,41,5,3.82.8,6.94,1.51,9,2l9-6c.21.63.79,2.63,0,5-.02.05-.04.11-.06.18-.81,2.25-2.82,3.84-5.18,4.21-1.86.29-4.71,1.39-10.75.6-3.57-.46-6.14-1.18-9-2-9.14-2.61-13.71-3.91-14-4-5.53-1.76-16.74-2.78-42,1Z" fill="#dbaa8f"/><path d="M668,1035.01c4-4,9-6,9-6l13.23-5.17,8.97,1.81-31.2,9.36Z" fill="#dbaa8f"/><path d="M666.61,1036.01c5.21-2.89,9.65-5.25,13-7,13.23-6.91,16.32-7.85,20-8,1.94-.08,5.29.61,12,2,4.6.95,8.26,1.81,17,4,5.28,1.32,13.27,3.35,23,7,3.91,1.47,8.13,2.74,9,6,.45,1.69-.04,3.63-1,5-1.44,2.04-3.84,2.66-6,3-8.19,1.29-15.85-.95-16-1-13.55-4.33-20.33-6.49-26-7-6.83-.61-11.72.63-21,3-17.42,4.44-25.26,10.74-28,8-1.29-1.29-1.61-4.77,4-15Z" fill="#e1af90"/><path d="M713.61,1054.01c-20-.33-40-.67-60-1,1.2-1.64,3.14-3.91,6-6,2.75-2,5.81-3.43,12-5,8.86-2.25,15.37-2.56,26-3,3.2-.13,7.14-.23,12,1,4.13,1.05,8.12,2.06,9,5,.83,2.76-1.32,6.36-5,9Z" fill="#dbaa8f"/><path d="M656.61,1082.01c5.98,1.56,7.61-13.47,22-18,5.86-1.85,13.69-1.93,28-5,1.19-.26,3.82-.85,6-3,3.04-2.99,4.83-8.58,3-12-2.57-4.81-11.7-4.22-29-3-12.79.9-17.76,2.61-21,4-5.17,2.22-9.93,4.26-13,9-6.4,9.87-2.23,26.38,4,28Z" fill="#e1af90"/><path d="M700.61,1042.01c-1.74,1.97-1.82,5.84,0,8,1.52,1.81,3.9,1.89,7,2,2.62.09,5.71.2,8-2,.48-.46,2.29-2.2,2-4-.69-4.3-13.18-8.31-17-4Z" fill="#d8bfaf"/><path d="M745.1,1035.9c-1.28,1.95,1.18,5.6,1.51,6.1.42.62,2.18,3.08,5.49,3.9,2.5.62,6.68.5,8-2,1.08-2.05-.33-4.62-.49-4.9-2.9-5.12-12.65-5.95-14.51-3.1Z" fill="#d8bfaf"/><path d="M763.61,1051.01c.16-1.69,1.43-3.42,3-4,5.1-1.88,14.49,7.88,13,11-1.03,2.18-7.72,1.93-12-1-.93-.64-4.29-2.94-4-6Z" fill="#d8bfaf"/></g></svg>