<?xml version="1.0" encoding="UTF-8"?>
<svg id="Capa_1" xmlns="http://www.w3.org/2000/svg" version="1.1" viewBox="0 0 1472.4 384.1">
  <!-- Generator: Adobe Illustrator 29.1.0, SVG Export Plug-In . SVG Version: 2.1.0 Build 142)  -->
  <defs>
    <style>
      .st0 {
        fill: #2453e0;
      }
    </style>
  </defs>
  <rect class="st0" x="1142.9" y="219.4" width="112.3" height="55" rx="24" ry="24"/>
  <path class="st0" d="M.5,265.8l.2-150.5c0-26.7,29.5-43,52.1-28.8l120.2,75.2c21.3,13.4,21.3,44.4,0,57.7l-120.4,75.2c-22.7,14.2-52.1-2.2-52.1-28.9h0Z"/>
  <path class="st0" d="M353.5,383.6h81.8c60.3,0,109.2-48.9,109.2-109.2h0c0-60.3-48.9-109.2-109.2-109.2h-81.8c-15.1,0-27.3,12.2-27.3,27.3h0c0,15.2,12.2,27.5,27.3,27.5h79.2c30.1,0,54.5,24.4,54.5,54.5h0c0,30.1-24.4,54.5-54.5,54.5h-79.2c-15.1,0-27.3,12.2-27.3,27.3h0c0,15.1,12.2,27.3,27.3,27.3h0Z"/>
  <path class="st0" d="M599.4,192.2v81.8c0,60.3,48.9,109.2,109.2,109.2h0c60.3,0,109.2-48.9,109.2-109.2v-81.8c0-15.1-12.2-27.3-27.3-27.3h-.2c-15.1,0-27.3,12.2-27.3,27.3v79.2c0,30.1-24.4,54.5-54.5,54.5h0c-30.1,0-54.5-24.4-54.5-54.5v-79.2c0-15.1-12.2-27.3-27.3-27.3h0c-15.1,0-27.3,12.2-27.3,27.3h0Z"/>
  <path class="st0" d="M899.1,383.6h0c15.1,0,27.2-12.2,27.2-27.3v-163.7c0-15.1-12.2-27.3-27.3-27.3h0c-15.1,0-27.3,12.2-27.3,27.3v163.7c0,15.1,12.2,27.3,27.3,27.3h0Z"/>
  <path class="st0" d="M1028.7,369.7l-42.3-84.4c-3.4-6.9-3.5-14.9,0-21.8l42.4-85.1c4.1-8.3,12.6-13.5,21.8-13.5h0c18.1,0,29.9,19.1,21.8,35.3l-31.5,62.9c-3.4,6.9-3.4,15,0,21.8l31.5,62.9c8.1,16.2-3.7,35.3-21.8,35.3h0c-9.2,0-17.7-5.2-21.8-13.5h0Z"/>
  <path class="st0" d="M1336,381.5h0c15.2,0,27.5-12.3,27.5-27.5l-.2-299.4h81.8c15.1,0,27.3-12.2,27.3-27.3h0C1472.4,12.2,1460.2,0,1445.1,0h-381.9c-15.1,0-27.3,12.2-27.3,27.3h0c0,15.2,12.1,27.4,27.1,27.4l245.4,1.3v297.9c0,15.2,12.3,27.5,27.5,27.5h0Z"/>
  <rect class="st0" x="54.4" y="325.9" width="221.1" height="55" rx="24" ry="24"/>
  <rect class="st0" x="49.8" y=".5" width="222.3" height="55" rx="24" ry="24"/>
</svg>