<?xml version="1.0" encoding="UTF-8"?><svg id="Capa_1" xmlns="http://www.w3.org/2000/svg" viewBox="0 0 760.5 939"><rect x="44.5" width="716" height="939" rx="30" ry="30" fill="#495be2"/><rect x="57.48" y="39" width="670.06" height="863" fill="#1f2020"/><circle cx="92.5" cy="87" r="12" fill="#495be2"/><circle cx="92.5" cy="157" r="12" fill="#495be2"/><circle cx="92.5" cy="227" r="12" fill="#495be2"/><circle cx="92.5" cy="297" r="12" fill="#495be2"/><circle cx="92.5" cy="367" r="12" fill="#495be2"/><circle cx="92.5" cy="437" r="12" fill="#495be2"/><circle cx="92.5" cy="507" r="12" fill="#495be2"/><circle cx="92.5" cy="577" r="12" fill="#495be2"/><circle cx="92.5" cy="647" r="12" fill="#495be2"/><circle cx="92.5" cy="717" r="12" fill="#495be2"/><circle cx="92.5" cy="787" r="12" fill="#495be2"/><circle cx="92.5" cy="857" r="12" fill="#495be2"/><rect x="1.5" y="83" width="96" height="8" rx="4" ry="4" fill="#fff" stroke="#fff" stroke-miterlimit="10" stroke-width="3"/><rect x="1.5" y="153" width="96" height="8" rx="4" ry="4" fill="#fff" stroke="#fff" stroke-miterlimit="10" stroke-width="3"/><rect x="1.5" y="223" width="96" height="8" rx="4" ry="4" fill="#fff" stroke="#fff" stroke-miterlimit="10" stroke-width="3"/><rect x="1.5" y="293" width="96" height="8" rx="4" ry="4" fill="#fff" stroke="#fff" stroke-miterlimit="10" stroke-width="3"/><rect x="1.5" y="363" width="96" height="8" rx="4" ry="4" fill="#fff" stroke="#fff" stroke-miterlimit="10" stroke-width="3"/><rect x="1.5" y="433" width="96" height="8" rx="4" ry="4" fill="#fff" stroke="#fff" stroke-miterlimit="10" stroke-width="3"/><rect x="1.5" y="503" width="96" height="8" rx="4" ry="4" fill="#fff" stroke="#fff" stroke-miterlimit="10" stroke-width="3"/><rect x="1.5" y="573" width="96" height="8" rx="4" ry="4" fill="#fff" stroke="#fff" stroke-miterlimit="10" stroke-width="3"/><rect x="1.5" y="643" width="96" height="8" rx="4" ry="4" fill="#fff" stroke="#fff" stroke-miterlimit="10" stroke-width="3"/><rect x="1.5" y="713" width="96" height="8" rx="4" ry="4" fill="#fff" stroke="#fff" stroke-miterlimit="10" stroke-width="3"/><rect x="1.5" y="783" width="96" height="8" rx="4" ry="4" fill="#fff" stroke="#fff" stroke-miterlimit="10" stroke-width="3"/><rect x="1.5" y="853" width="96" height="8" rx="4" ry="4" fill="#fff" stroke="#fff" stroke-miterlimit="10" stroke-width="3"/></svg>